<svg xmlns="http://www.w3.org/2000/svg" viewBox="0 0 256 256" role="img" aria-labelledby="title desc">
  <title id="title">Piano IQ icon</title>
  <desc id="desc">A cartoon grand piano with an open music book on the keyboard.</desc>
  <rect width="256" height="256" fill="#ffffff"/>
  <g stroke="#111827" stroke-width="5" stroke-linecap="round" stroke-linejoin="round">
    <path d="M20 95c28-42 70-68 121-70 30-1 53 7 57 21 3 12-5 24-19 27-13 3-23 2-25 7-2 6 13 10 45 11v36H30L20 95z" fill="#a0a8b8"/>
    <path d="M20 95l10 32h169V91c-34-1-49-5-45-11 3-6 14-5 26-8 14-3 21-16 18-27" fill="none"/>
    <path d="M83 87c12-6 24-6 34 1l-4 43H88L83 87z" fill="#f8d57a"/>
    <path d="M119 87c12-6 24-6 34 1l-6 43h-25l-3-44z" fill="#f8d57a"/>
    <path d="M93 98c6-2 12-1 18 1M94 109c6-2 12-1 18 1M95 120c6-2 12-1 18 1M128 99c6-2 12-2 18 0M129 110c6-2 12-2 18 0M130 121c6-2 12-2 18 0" fill="none"/>
    <path d="M6 140l27-19h163l45 18-2 28c-1 5-4 8-9 8H16c-5 0-8-3-9-8L6 140z" fill="#d7dbe4"/>
    <path d="M16 144h211l-2 20H18l-2-20z" fill="#f8fafc"/>
    <path d="M29 143l8-17M55 143l9-17M82 143l8-17M110 143l7-17M137 143l-4-17M164 143l-6-17M191 143l-8-17M216 143l-12-17" fill="none"/>
    <g fill="#111827">
      <path d="M41 128h12l-7 24H35z"/>
      <path d="M64 128h12l-6 24H59z"/>
      <path d="M87 128h12l-5 24H83z"/>
      <path d="M112 128h12l-3 24h-11z"/>
      <path d="M137 128h12l4 24h-11z"/>
      <path d="M163 128h12l6 24h-11z"/>
      <path d="M188 128h12l8 24h-12z"/>
    </g>
    <path d="M29 175v26M228 175v26M93 174l-2 21M116 174v21M140 174l3 21" fill="none"/>
    <path d="M86 197c0-5 5-8 12-8s12 3 12 8-5 8-12 8-12-3-12-8zM110 197c0-5 5-8 12-8s12 3 12 8-5 8-12 8-12-3-12-8zM134 197c0-5 5-8 12-8s12 3 12 8-5 8-12 8-12-3-12-8z" fill="#f8fafc"/>
  </g>
</svg>
